<?xml version="1.0" encoding="utf-8"?>
<!-- Generator: Adobe Illustrator 16.0.0, SVG Export Plug-In . SVG Version: 6.00 Build 0)  -->
<!DOCTYPE svg PUBLIC "-//W3C//DTD SVG 1.1//EN" "http://www.w3.org/Graphics/SVG/1.1/DTD/svg11.dtd">
<svg version="1.1" id="Layer_1" xmlns="http://www.w3.org/2000/svg" xmlns:xlink="http://www.w3.org/1999/xlink" x="0px" y="0px"
	 width="70px" height="70px" viewBox="0 0 70 70" enable-background="new 0 0 70 70" xml:space="preserve">
<g>
	<g>
		<path fill-rule="evenodd" clip-rule="evenodd" fill="#FFFFFF" d="M0.139,70.273C0.138,46.901,0.138,23.528,0.138,0.146
			c23.366,0,46.732,0,70.118,0c0,23.369,0,46.748,0,70.127C46.886,70.273,23.512,70.273,0.139,70.273z M35.128,47.589
			c2.369,0,4.739-0.01,7.108,0.008c0.57,0.004,0.948-0.192,1.188-0.717c3.09-6.722,4.801-13.718,4.292-21.172
			c-0.365-5.348-1.931-10.302-4.766-14.853c-1.919-3.083-4.314-5.751-7.064-8.109c-0.604-0.518-0.882-0.517-1.487-0.007
			c-0.366,0.308-0.726,0.624-1.077,0.948c-7.249,6.705-10.936,14.979-10.864,24.87c0.046,6.454,1.686,12.545,4.412,18.366
			c0.235,0.503,0.615,0.673,1.148,0.67C30.389,47.582,32.758,47.589,35.128,47.589z M37.848,54.898
			c-0.209-0.707-0.391-1.322-0.601-2.033c-0.091,0.278-0.138,0.453-0.204,0.62c-0.408,1.032-0.766,2.09-1.25,3.086
			c-0.326,0.672-0.674,0.642-1.095,0.039c-0.117-0.168-0.234-0.339-0.321-0.523c-0.596-1.258-1.184-2.521-1.791-3.815
			c-0.492,0.475-0.769,0.063-0.999-0.413c-0.187-0.389-0.328-0.799-0.509-1.19c-0.25-0.541-0.521-1.072-0.834-1.715
			c-1.595,1.527-2.687,3.111-2.418,5.257c0.249,1.994,1.4,3.51,2.808,5.005c0.235-0.54,0.395-0.907,0.554-1.273
			c0.16,0.286,0.232,0.534,0.219,0.777c-0.087,1.549,0.557,2.795,1.468,3.998c1.186,1.565,2.453,3.109,2.786,5.239
			c0.205-0.156,0.373-0.235,0.469-0.366c0.977-1.336,1.776-2.748,1.867-4.46c0.076-1.407,0.154-2.814,0.268-4.22
			c0.023-0.287,0.211-0.562,0.324-0.842c0.063,0.022,0.125,0.045,0.188,0.066c0.068,0.439,0.092,0.893,0.222,1.313
			c0.078,0.254,0.321,0.457,0.49,0.683c0.207-0.155,0.505-0.266,0.606-0.473c0.748-1.525,1.61-3.019,2.14-4.62
			c0.759-2.297-0.43-4.898-2.544-6.063c-0.217-0.119-0.498-0.123-0.749-0.18c-0.005,0.278-0.104,0.6,0.001,0.828
			c0.408,0.891,0.447,1.814,0.305,2.743C39.102,53.307,38.861,54.23,37.848,54.898z M55.882,48.522
			c-0.12-0.865-0.235-2.415-0.562-3.92c-0.694-3.194-2.051-6.068-4.448-8.374c-0.353-0.34-0.711-0.661-1.257-0.5
			c-0.549,0.163-0.66,0.629-0.768,1.108c-0.698,3.092-1.703,6.082-2.981,8.981c-0.566,1.283-0.434,1.616,0.898,2.02
			c2.889,0.874,4.981,2.589,5.874,5.564c0.163,0.543,0.306,1.097,0.4,1.655c0.09,0.538,0.324,0.927,0.888,0.951
			c0.583,0.024,0.873-0.344,1.042-0.889C55.568,53.19,55.814,51.212,55.882,48.522z M14.397,49.339
			c0.035,0.552,0.019,1.198,0.128,1.822c0.244,1.385,0.536,2.762,0.838,4.136c0.105,0.479,0.48,0.733,0.96,0.714
			c0.521-0.021,0.816-0.344,0.89-0.867c0.032-0.225,0.086-0.446,0.134-0.669c0.564-2.632,1.861-4.734,4.369-5.92
			c0.716-0.338,1.482-0.571,2.229-0.845c0.696-0.256,0.973-0.746,0.688-1.372c-1.435-3.158-2.514-6.433-3.297-9.809
			c-0.198-0.851-1.028-1.13-1.658-0.528c-0.672,0.643-1.331,1.321-1.873,2.072C15.402,41.405,14.487,45.206,14.397,49.339z"/>
		<path fill-rule="evenodd" clip-rule="evenodd" d="M35.128,47.589c-2.37,0-4.739-0.007-7.109,0.005
			c-0.534,0.003-0.913-0.167-1.148-0.67c-2.726-5.821-4.365-11.912-4.412-18.366c-0.072-9.891,3.616-18.165,10.864-24.87
			c0.351-0.324,0.71-0.641,1.077-0.948c0.605-0.51,0.884-0.511,1.487,0.007c2.75,2.358,5.145,5.026,7.064,8.109
			c2.834,4.551,4.4,9.505,4.766,14.853c0.509,7.454-1.202,14.45-4.292,21.172c-0.241,0.524-0.619,0.721-1.188,0.717
			C39.867,47.579,37.497,47.589,35.128,47.589z M40.65,20.446c0.004-3.061-2.467-5.568-5.478-5.558
			c-3.099,0.01-5.552,2.466-5.551,5.556c0,3.069,2.502,5.548,5.583,5.532C38.184,25.962,40.646,23.461,40.65,20.446z M32.098,33.729
			c-0.005,1.717,1.362,3.079,3.08,3.067c1.638-0.011,2.994-1.373,2.999-3.014c0.005-1.757-1.313-3.091-3.048-3.083
			C33.417,30.707,32.104,32.02,32.098,33.729z"/>
		<path fill-rule="evenodd" clip-rule="evenodd" d="M37.848,54.898c1.014-0.668,1.254-1.592,1.397-2.531
			c0.142-0.929,0.103-1.853-0.305-2.743c-0.104-0.229-0.006-0.55-0.001-0.828c0.251,0.057,0.532,0.061,0.749,0.18
			c2.114,1.164,3.304,3.766,2.544,6.063c-0.529,1.602-1.392,3.095-2.14,4.62c-0.102,0.207-0.399,0.317-0.606,0.473
			c-0.168-0.226-0.412-0.429-0.49-0.683c-0.129-0.421-0.153-0.874-0.222-1.313c-0.063-0.021-0.125-0.044-0.188-0.066
			c-0.112,0.28-0.3,0.555-0.324,0.842c-0.114,1.405-0.192,2.813-0.268,4.22c-0.091,1.712-0.89,3.124-1.867,4.46
			c-0.096,0.131-0.264,0.21-0.469,0.366c-0.333-2.13-1.6-3.674-2.786-5.239c-0.911-1.203-1.555-2.449-1.468-3.998
			c0.014-0.243-0.059-0.491-0.219-0.777c-0.159,0.366-0.318,0.733-0.554,1.273c-1.408-1.495-2.559-3.011-2.808-5.005
			c-0.269-2.146,0.823-3.729,2.418-5.257c0.314,0.643,0.584,1.174,0.834,1.715c0.182,0.392,0.322,0.802,0.509,1.19
			c0.229,0.477,0.507,0.888,0.999,0.413c0.606,1.295,1.194,2.558,1.791,3.815c0.087,0.185,0.204,0.355,0.321,0.523
			c0.421,0.603,0.769,0.633,1.095-0.039c0.484-0.996,0.842-2.054,1.25-3.086c0.066-0.167,0.113-0.342,0.204-0.62
			C37.457,53.576,37.639,54.191,37.848,54.898z"/>
		<path fill-rule="evenodd" clip-rule="evenodd" d="M55.882,48.522c-0.068,2.689-0.314,4.668-0.914,6.598
			c-0.169,0.545-0.459,0.913-1.042,0.889c-0.564-0.024-0.798-0.413-0.888-0.951c-0.094-0.559-0.237-1.112-0.4-1.655
			c-0.892-2.976-2.985-4.69-5.874-5.564c-1.332-0.403-1.464-0.736-0.898-2.02c1.278-2.899,2.284-5.89,2.981-8.981
			c0.108-0.479,0.219-0.945,0.768-1.108c0.546-0.161,0.904,0.16,1.257,0.5c2.397,2.306,3.754,5.18,4.448,8.374
			C55.647,46.107,55.763,47.657,55.882,48.522z"/>
		<path fill-rule="evenodd" clip-rule="evenodd" d="M14.397,49.339c0.09-4.133,1.005-7.934,3.409-11.266
			c0.542-0.751,1.201-1.43,1.873-2.072c0.63-0.602,1.46-0.322,1.658,0.528c0.783,3.376,1.862,6.65,3.297,9.809
			c0.285,0.626,0.008,1.116-0.688,1.372c-0.747,0.273-1.513,0.507-2.229,0.845c-2.508,1.186-3.805,3.288-4.369,5.92
			c-0.047,0.223-0.102,0.444-0.134,0.669c-0.074,0.523-0.369,0.846-0.89,0.867c-0.48,0.02-0.854-0.235-0.96-0.714
			c-0.302-1.374-0.595-2.751-0.838-4.136C14.416,50.537,14.433,49.891,14.397,49.339z"/>
		<path fill-rule="evenodd" clip-rule="evenodd" fill="#FFFFFF" d="M40.65,20.446c-0.004,3.015-2.466,5.516-5.447,5.53
			c-3.08,0.016-5.582-2.463-5.583-5.532c0-3.09,2.453-5.546,5.551-5.556C38.184,14.878,40.655,17.386,40.65,20.446z"/>
		<path fill-rule="evenodd" clip-rule="evenodd" fill="#FFFFFF" d="M32.098,33.729c0.005-1.709,1.318-3.021,3.03-3.029
			c1.735-0.008,3.053,1.326,3.048,3.083c-0.005,1.641-1.361,3.003-2.999,3.014C33.46,36.808,32.093,35.445,32.098,33.729z"/>
	</g>
</g>
</svg>
