<?xml version="1.0" encoding="utf-8"?>
<!-- Generator: Adobe Illustrator 16.0.0, SVG Export Plug-In . SVG Version: 6.00 Build 0)  -->
<!DOCTYPE svg PUBLIC "-//W3C//DTD SVG 1.1//EN" "http://www.w3.org/Graphics/SVG/1.1/DTD/svg11.dtd">
<svg version="1.1" id="Capa_1" xmlns="http://www.w3.org/2000/svg" xmlns:xlink="http://www.w3.org/1999/xlink" x="0px" y="0px"
	 width="612px" height="792px" viewBox="0 0 612 792" enable-background="new 0 0 612 792" xml:space="preserve">
<g>
	<path fill="#FFFFFF" d="M605.047,324.62H446.941c-8.03,0-14.314,6.663-16.7,14.343c-6.109,19.638-24.438,33.878-46.054,33.878
		c-26.649,0-48.222-21.587-48.222-48.222c0-14.823,6.691-28.089,17.237-36.933c6.139-5.164,10.372-13.747,7.87-21.383
		L310.48,110.627c-2.487-7.637-6.502-7.637-8.99,0l-50.113,154.236c-2.487,7.637,1.294,17.15,6.604,23.173
		c7.448,8.437,11.986,19.492,11.986,31.639c0,26.634-21.587,48.221-48.222,48.221c-19.885,0-36.788-12.073-44.119-29.268
		c-3.142-7.389-10.125-14.022-18.169-14.022H6.953c-8.044,0.014-9.281,3.84-2.778,8.568l135.195,98.218
		c6.502,4.713,16.496,3.884,23.74,0.393c6.24-3.011,13.223-4.713,20.627-4.713c26.635,0,48.222,21.587,48.222,48.207
		c0,26.635-21.587,48.222-48.222,48.222c-2.691,0-5.324-0.276-7.87-0.757c-4.292-0.8-9.645,4.175-12.117,11.813L116.692,679.38
		c-2.487,7.638,0.771,10.009,7.273,5.28l129.595-94.159c6.502-4.713,8.277-13.674,6.153-20.874
		c-1.251-4.248-1.935-8.742-1.935-13.383c0-26.635,21.587-48.222,48.222-48.222s48.222,21.587,48.222,48.222
		c0,4.641-0.684,9.135-1.935,13.383c-2.124,7.186-0.35,16.146,6.153,20.874l129.595,94.159c6.487,4.714,9.761,2.357,7.273-5.28
		l-46.68-143.646c-2.488-7.637-7.056-13.121-10.313-12.67c-1.921,0.291-3.885,0.437-5.892,0.437
		c-26.635,0-48.207-21.587-48.207-48.222c0-26.62,21.572-48.207,48.207-48.207c6.502,0,12.655,1.338,18.299,3.724
		c7.39,3.128,17.616,3.725,24.118-1.004l132.999-96.617C614.342,328.446,613.076,324.62,605.047,324.62z M305.971,456.63
		c-23.245,0-42.083-18.838-42.083-42.098c0-23.245,18.838-42.083,42.083-42.083s42.083,18.838,42.083,42.083
		C348.054,437.792,329.216,456.63,305.971,456.63z"/>
</g>
</svg>
