<?xml version="1.0" encoding="utf-8"?>
<!-- Generator: Adobe Illustrator 16.0.0, SVG Export Plug-In . SVG Version: 6.00 Build 0)  -->
<!DOCTYPE svg PUBLIC "-//W3C//DTD SVG 1.1//EN" "http://www.w3.org/Graphics/SVG/1.1/DTD/svg11.dtd">
<svg version="1.1" id="Layer_1" xmlns="http://www.w3.org/2000/svg" xmlns:xlink="http://www.w3.org/1999/xlink" x="0px" y="0px"
	 width="60.002px" height="60px" viewBox="0 0 60.002 60" enable-background="new 0 0 60.002 60" xml:space="preserve">
<g>
	<g>
		<path fill="#56635C" d="M29.982,40.314c-1.967,0-3.932-0.006-5.899,0.006c-0.442,0.002-0.757-0.141-0.953-0.557
			c-2.262-4.83-3.622-9.887-3.661-15.244C19.41,16.31,22.47,9.441,28.486,3.876c0.291-0.269,0.588-0.532,0.893-0.787
			c0.502-0.422,0.734-0.423,1.232,0.007c2.283,1.958,4.271,4.172,5.861,6.731c2.354,3.777,3.652,7.889,3.957,12.328
			c0.424,6.187-0.996,11.993-3.561,17.573c-0.201,0.436-0.514,0.6-0.986,0.596C33.917,40.307,31.951,40.314,29.982,40.314z
			 M34.566,17.787c0.002-2.541-2.047-4.621-4.547-4.612c-2.572,0.008-4.607,2.047-4.607,4.611c0,2.548,2.076,4.605,4.635,4.592
			C32.52,22.366,34.564,20.29,34.566,17.787z M27.471,28.811c-0.006,1.425,1.129,2.558,2.555,2.546
			c1.359-0.01,2.483-1.143,2.488-2.503c0.006-1.459-1.089-2.565-2.527-2.56C28.564,26.303,27.475,27.393,27.471,28.811z"/>
		<path fill="#56635C" d="M32.248,46.383c0.841-0.555,1.04-1.322,1.161-2.102c0.116-0.771,0.084-1.539-0.259-2.277
			c-0.086-0.191-0.004-0.455,0-0.688c0.207,0.051,0.441,0.053,0.621,0.15c1.756,0.967,2.746,3.127,2.112,5.033
			c-0.437,1.33-1.157,2.566-1.776,3.834c-0.086,0.172-0.328,0.264-0.502,0.393c-0.14-0.188-0.342-0.355-0.406-0.566
			c-0.106-0.35-0.127-0.727-0.188-1.09c-0.052-0.018-0.104-0.035-0.154-0.053c-0.092,0.23-0.248,0.463-0.27,0.699
			c-0.094,1.166-0.158,2.336-0.223,3.504c-0.078,1.422-0.74,2.594-1.551,3.701c-0.078,0.109-0.219,0.174-0.389,0.305
			c-0.277-1.77-1.328-3.051-2.313-4.348c-0.758-0.998-1.291-2.033-1.219-3.318c0.012-0.201-0.049-0.406-0.183-0.645
			c-0.131,0.305-0.265,0.605-0.461,1.055c-1.167-1.24-2.124-2.5-2.33-4.154c-0.224-1.781,0.682-3.096,2.007-4.363
			c0.26,0.535,0.484,0.977,0.692,1.426c0.151,0.326,0.267,0.666,0.422,0.984c0.19,0.396,0.421,0.738,0.83,0.344
			c0.502,1.074,0.989,2.123,1.487,3.164c0.07,0.156,0.168,0.295,0.266,0.434c0.35,0.5,0.639,0.525,0.912-0.031
			c0.396-0.826,0.697-1.707,1.037-2.563c0.052-0.139,0.09-0.283,0.168-0.516C31.924,45.285,32.074,45.795,32.248,46.383z"/>
		<path fill="#56635C" d="M47.217,41.09c-0.057,2.23-0.261,3.873-0.759,5.475c-0.142,0.453-0.381,0.762-0.865,0.738
			c-0.469-0.018-0.661-0.342-0.735-0.787c-0.082-0.467-0.197-0.922-0.332-1.373c-0.74-2.473-2.479-3.891-4.877-4.615
			c-1.105-0.334-1.213-0.609-0.744-1.68c1.061-2.402,1.896-4.887,2.475-7.451c0.089-0.396,0.182-0.783,0.637-0.917
			c0.455-0.137,0.752,0.132,1.045,0.416c1.988,1.912,3.115,4.297,3.69,6.947C47.021,39.086,47.118,40.371,47.217,41.09z"/>
		<path fill="#56635C" d="M12.785,41.768c0.075-3.432,0.833-6.586,2.829-9.35c0.451-0.623,0.997-1.189,1.555-1.721
			c0.523-0.5,1.212-0.267,1.376,0.438c0.65,2.803,1.545,5.52,2.737,8.141c0.236,0.52,0.006,0.926-0.571,1.139
			c-0.62,0.227-1.256,0.422-1.85,0.703c-2.082,0.984-3.158,2.729-3.625,4.914c-0.04,0.186-0.085,0.365-0.112,0.557
			c-0.062,0.432-0.306,0.703-0.739,0.717c-0.397,0.018-0.709-0.191-0.797-0.592c-0.251-1.141-0.495-2.283-0.695-3.434
			C12.8,42.762,12.814,42.225,12.785,41.768z"/>
	</g>
</g>
</svg>
