<?xml version="1.0" encoding="utf-8"?>
<!-- Generator: Adobe Illustrator 16.0.0, SVG Export Plug-In . SVG Version: 6.00 Build 0)  -->
<!DOCTYPE svg PUBLIC "-//W3C//DTD SVG 1.1//EN" "http://www.w3.org/Graphics/SVG/1.1/DTD/svg11.dtd">
<svg version="1.1" id="Layer_1" xmlns="http://www.w3.org/2000/svg" xmlns:xlink="http://www.w3.org/1999/xlink" x="0px" y="0px"
	 width="70px" height="70px" viewBox="0 0 70 70" enable-background="new 0 0 70 70" xml:space="preserve">
<g>
	<g>
		<path fill="#32353C" d="M34.979,47.432c-2.371,0-4.738-0.007-7.109,0.006c-0.533,0.004-0.912-0.168-1.148-0.67
			c-2.725-5.82-4.364-11.912-4.411-18.366C22.24,18.51,25.927,10.236,33.175,3.531c0.35-0.324,0.709-0.641,1.076-0.948
			c0.605-0.51,0.885-0.511,1.485,0.007c2.75,2.358,5.146,5.026,7.064,8.109c2.834,4.551,4.4,9.505,4.766,14.853
			c0.511,7.454-1.2,14.451-4.291,21.173c-0.241,0.522-0.618,0.721-1.188,0.717C39.718,47.421,37.35,47.432,34.979,47.432z
			 M40.501,20.288c0.004-3.061-2.467-5.567-5.479-5.557c-3.098,0.01-5.551,2.466-5.551,5.555c0,3.07,2.502,5.549,5.584,5.533
			C38.034,25.805,40.497,23.304,40.501,20.288z M31.95,33.572c-0.006,1.716,1.361,3.08,3.08,3.066
			c1.637-0.01,2.992-1.375,2.998-3.015c0.005-1.758-1.313-3.091-3.048-3.083C33.269,30.55,31.956,31.863,31.95,33.572z"/>
		<path fill="#32353C" d="M37.707,54.741c1.014-0.668,1.254-1.593,1.398-2.531c0.141-0.93,0.102-1.854-0.308-2.744
			c-0.104-0.229-0.006-0.549,0-0.827c0.25,0.059,0.531,0.063,0.748,0.182c2.115,1.164,3.306,3.766,2.545,6.063
			c-0.528,1.602-1.393,3.094-2.141,4.619c-0.103,0.207-0.397,0.318-0.604,0.473c-0.168-0.225-0.412-0.428-0.49-0.682
			c-0.129-0.422-0.152-0.875-0.224-1.314c-0.063-0.02-0.125-0.043-0.188-0.063c-0.11,0.278-0.299,0.556-0.323,0.842
			c-0.113,1.404-0.19,2.813-0.269,4.22c-0.092,1.713-0.891,3.125-1.867,4.461c-0.096,0.131-0.264,0.209-0.469,0.364
			c-0.332-2.129-1.6-3.674-2.785-5.237c-0.912-1.203-1.555-2.449-1.469-3.998c0.014-0.242-0.059-0.49-0.219-0.777
			c-0.158,0.367-0.318,0.732-0.555,1.273c-1.406-1.494-2.559-3.013-2.807-5.006c-0.27-2.146,0.822-3.729,2.418-5.257
			c0.314,0.644,0.584,1.175,0.834,1.716c0.182,0.393,0.322,0.803,0.508,1.188c0.23,0.478,0.508,0.889,1,0.414
			c0.605,1.295,1.193,2.557,1.791,3.813c0.086,0.187,0.203,0.355,0.32,0.523c0.422,0.602,0.77,0.633,1.097-0.039
			c0.481-0.996,0.842-2.055,1.25-3.086c0.063-0.168,0.11-0.342,0.203-0.621C37.316,53.419,37.498,54.034,37.707,54.741z"/>
		<path fill="#32353C" d="M55.742,48.364c-0.068,2.688-0.314,4.668-0.914,6.598c-0.17,0.545-0.459,0.914-1.043,0.89
			c-0.564-0.023-0.797-0.412-0.887-0.949c-0.097-0.562-0.238-1.113-0.4-1.656c-0.893-2.977-2.986-4.689-5.875-5.564
			c-1.332-0.401-1.463-0.733-0.896-2.02c1.277-2.898,2.283-5.887,2.98-8.979c0.107-0.479,0.219-0.945,0.768-1.107
			c0.547-0.164,0.904,0.16,1.258,0.5c2.396,2.305,3.754,5.178,4.447,8.371C55.506,45.95,55.623,47.499,55.742,48.364z"/>
		<path fill="#32353C" d="M14.258,49.182c0.09-4.134,1.004-7.935,3.408-11.265c0.543-0.75,1.201-1.431,1.873-2.072
			c0.631-0.603,1.461-0.321,1.658,0.529c0.783,3.375,1.862,6.647,3.297,9.808c0.285,0.625,0.008,1.114-0.688,1.37
			c-0.747,0.273-1.514,0.509-2.229,0.847c-2.508,1.186-3.805,3.287-4.368,5.92c-0.048,0.223-0.103,0.442-0.135,0.67
			c-0.074,0.521-0.369,0.846-0.89,0.865c-0.479,0.021-0.854-0.234-0.96-0.713c-0.303-1.375-0.596-2.752-0.838-4.138
			C14.276,50.38,14.293,49.732,14.258,49.182z"/>
	</g>
</g>
</svg>
